<mxfile host="app.diagrams.net" modified="2024-11-13T01:27:00.291Z" agent="5.0 (Macintosh; Intel Mac OS X 10_15_7) AppleWebKit/537.36 (KHTML, like Gecko) Chrome/130.0.0.0 Safari/537.36" etag="uz3K3rMivjezJ20F0BQb" version="17.1.2" type="github">
  <diagram id="C5RBs43oDa-KdzZeNtuy" name="Page-1">
    <mxGraphModel dx="652" dy="549" grid="1" gridSize="10" guides="1" tooltips="1" connect="1" arrows="1" fold="1" page="1" pageScale="1" pageWidth="827" pageHeight="1169" math="0" shadow="0">
      <root>
        <mxCell id="WIyWlLk6GJQsqaUBKTNV-0" />
        <mxCell id="WIyWlLk6GJQsqaUBKTNV-1" parent="WIyWlLk6GJQsqaUBKTNV-0" />
        <mxCell id="yP_wTFienZzigo8ZD11Q-12" value="" style="whiteSpace=wrap;html=1;aspect=fixed;fontSize=29;" parent="WIyWlLk6GJQsqaUBKTNV-1" vertex="1">
          <mxGeometry x="180" y="190" width="80" height="80" as="geometry" />
        </mxCell>
        <mxCell id="WIyWlLk6GJQsqaUBKTNV-2" value="" style="rounded=0;html=1;jettySize=auto;orthogonalLoop=1;fontSize=11;endArrow=block;endFill=0;endSize=8;strokeWidth=1;shadow=0;labelBackgroundColor=none;edgeStyle=orthogonalEdgeStyle;" parent="WIyWlLk6GJQsqaUBKTNV-1" source="WIyWlLk6GJQsqaUBKTNV-3" target="WIyWlLk6GJQsqaUBKTNV-6" edge="1">
          <mxGeometry relative="1" as="geometry">
            <Array as="points">
              <mxPoint x="220" y="140" />
              <mxPoint x="220" y="140" />
            </Array>
          </mxGeometry>
        </mxCell>
        <mxCell id="WIyWlLk6GJQsqaUBKTNV-3" value="Raw file (csv, flat)" style="rounded=1;whiteSpace=wrap;html=1;fontSize=12;glass=0;strokeWidth=1;shadow=0;fillColor=#ffe6cc;strokeColor=#d79b00;" parent="WIyWlLk6GJQsqaUBKTNV-1" vertex="1">
          <mxGeometry x="160" y="80" width="120" height="40" as="geometry" />
        </mxCell>
        <mxCell id="WIyWlLk6GJQsqaUBKTNV-4" value="Schema" style="rounded=0;html=1;jettySize=auto;orthogonalLoop=1;fontSize=11;endArrow=block;endFill=0;endSize=8;strokeWidth=1;shadow=0;labelBackgroundColor=none;edgeStyle=orthogonalEdgeStyle;" parent="WIyWlLk6GJQsqaUBKTNV-1" source="WIyWlLk6GJQsqaUBKTNV-6" target="WIyWlLk6GJQsqaUBKTNV-10" edge="1">
          <mxGeometry x="-0.0935" y="20" relative="1" as="geometry">
            <mxPoint y="2" as="offset" />
            <Array as="points">
              <mxPoint x="220" y="320" />
              <mxPoint x="220" y="320" />
            </Array>
          </mxGeometry>
        </mxCell>
        <mxCell id="f37Q-BBssw8EZ5fxQEzy-28" value="" style="edgeStyle=orthogonalEdgeStyle;rounded=0;orthogonalLoop=1;jettySize=auto;html=1;fontSize=12;endArrow=block;endFill=1;" edge="1" parent="WIyWlLk6GJQsqaUBKTNV-1" source="WIyWlLk6GJQsqaUBKTNV-6" target="f37Q-BBssw8EZ5fxQEzy-12">
          <mxGeometry relative="1" as="geometry">
            <Array as="points">
              <mxPoint x="340" y="230" />
              <mxPoint x="340" y="280" />
            </Array>
          </mxGeometry>
        </mxCell>
        <mxCell id="WIyWlLk6GJQsqaUBKTNV-6" value="SchemaSense" style="rhombus;whiteSpace=wrap;html=1;shadow=0;fontFamily=Helvetica;fontSize=12;align=center;strokeWidth=1;spacing=6;spacingTop=-4;fillColor=#dae8fc;strokeColor=#6c8ebf;" parent="WIyWlLk6GJQsqaUBKTNV-1" vertex="1">
          <mxGeometry x="170" y="190" width="100" height="80" as="geometry" />
        </mxCell>
        <mxCell id="WIyWlLk6GJQsqaUBKTNV-7" value="OpenAI" style="rounded=1;whiteSpace=wrap;html=1;fontSize=12;glass=0;strokeWidth=1;shadow=0;fillColor=#fff2cc;strokeColor=#d6b656;" parent="WIyWlLk6GJQsqaUBKTNV-1" vertex="1">
          <mxGeometry x="371" y="164" width="120" height="40" as="geometry" />
        </mxCell>
        <mxCell id="f37Q-BBssw8EZ5fxQEzy-6" style="edgeStyle=orthogonalEdgeStyle;rounded=0;orthogonalLoop=1;jettySize=auto;html=1;entryX=0;entryY=0.5;entryDx=0;entryDy=0;fontSize=29;exitX=1;exitY=0.5;exitDx=0;exitDy=0;" edge="1" parent="WIyWlLk6GJQsqaUBKTNV-1">
          <mxGeometry relative="1" as="geometry">
            <mxPoint x="280" y="408" as="sourcePoint" />
            <mxPoint x="320" y="377" as="targetPoint" />
            <Array as="points">
              <mxPoint x="290" y="408" />
              <mxPoint x="290" y="377" />
            </Array>
          </mxGeometry>
        </mxCell>
        <mxCell id="f37Q-BBssw8EZ5fxQEzy-9" style="edgeStyle=orthogonalEdgeStyle;rounded=0;orthogonalLoop=1;jettySize=auto;html=1;exitX=1;exitY=0.5;exitDx=0;exitDy=0;entryX=0;entryY=0.5;entryDx=0;entryDy=0;fontSize=29;" edge="1" parent="WIyWlLk6GJQsqaUBKTNV-1" source="WIyWlLk6GJQsqaUBKTNV-10" target="yP_wTFienZzigo8ZD11Q-4">
          <mxGeometry relative="1" as="geometry">
            <mxPoint x="280" y="408" as="sourcePoint" />
            <Array as="points">
              <mxPoint x="270" y="408" />
              <mxPoint x="290" y="408" />
              <mxPoint x="290" y="425" />
            </Array>
          </mxGeometry>
        </mxCell>
        <mxCell id="WIyWlLk6GJQsqaUBKTNV-10" value="Atlas" style="rhombus;whiteSpace=wrap;html=1;shadow=0;fontFamily=Helvetica;fontSize=12;align=center;strokeWidth=1;spacing=6;spacingTop=-4;fillColor=#60a917;fontColor=#ffffff;strokeColor=#2D7600;" parent="WIyWlLk6GJQsqaUBKTNV-1" vertex="1">
          <mxGeometry x="170" y="365" width="100" height="80" as="geometry" />
        </mxCell>
        <mxCell id="WIyWlLk6GJQsqaUBKTNV-12" value="Search" style="rounded=1;whiteSpace=wrap;html=1;fontSize=12;glass=0;strokeWidth=1;shadow=0;fillColor=#d5e8d4;strokeColor=#82b366;" parent="WIyWlLk6GJQsqaUBKTNV-1" vertex="1">
          <mxGeometry x="320" y="356" width="120" height="40" as="geometry" />
        </mxCell>
        <mxCell id="f37Q-BBssw8EZ5fxQEzy-29" value="" style="edgeStyle=orthogonalEdgeStyle;rounded=0;orthogonalLoop=1;jettySize=auto;html=1;fontSize=12;endArrow=classicThin;endFill=0;" edge="1" parent="WIyWlLk6GJQsqaUBKTNV-1" source="yP_wTFienZzigo8ZD11Q-2" target="WIyWlLk6GJQsqaUBKTNV-6">
          <mxGeometry relative="1" as="geometry" />
        </mxCell>
        <mxCell id="yP_wTFienZzigo8ZD11Q-2" value="Claude" style="rounded=1;whiteSpace=wrap;html=1;fontSize=12;glass=0;strokeWidth=1;shadow=0;fillColor=#fff2cc;strokeColor=#d6b656;" parent="WIyWlLk6GJQsqaUBKTNV-1" vertex="1">
          <mxGeometry x="371" y="210" width="120" height="40" as="geometry" />
        </mxCell>
        <mxCell id="yP_wTFienZzigo8ZD11Q-4" value="VectorSearch" style="rounded=1;whiteSpace=wrap;html=1;fontSize=12;glass=0;strokeWidth=1;shadow=0;fillColor=#d5e8d4;strokeColor=#82b366;" parent="WIyWlLk6GJQsqaUBKTNV-1" vertex="1">
          <mxGeometry x="320" y="405" width="120" height="40" as="geometry" />
        </mxCell>
        <mxCell id="yP_wTFienZzigo8ZD11Q-6" value="&lt;font style=&quot;font-size: 29px&quot;&gt;SchemaSense&lt;/font&gt;" style="text;strokeColor=#1A1A1A;fillColor=none;html=1;fontSize=24;fontStyle=1;verticalAlign=middle;align=center;shadow=1;" parent="WIyWlLk6GJQsqaUBKTNV-1" vertex="1">
          <mxGeometry x="290" y="90" width="230" height="60" as="geometry" />
        </mxCell>
        <mxCell id="yP_wTFienZzigo8ZD11Q-7" value="SA" style="shape=umlActor;verticalLabelPosition=bottom;verticalAlign=top;html=1;outlineConnect=0;fontSize=29;" parent="WIyWlLk6GJQsqaUBKTNV-1" vertex="1">
          <mxGeometry x="70" y="196" width="30" height="60" as="geometry" />
        </mxCell>
        <mxCell id="yP_wTFienZzigo8ZD11Q-11" value="" style="endArrow=classic;startArrow=classic;html=1;rounded=0;fontSize=29;" parent="WIyWlLk6GJQsqaUBKTNV-1" edge="1">
          <mxGeometry width="50" height="50" relative="1" as="geometry">
            <mxPoint x="102" y="229.5" as="sourcePoint" />
            <mxPoint x="170" y="229.5" as="targetPoint" />
            <Array as="points">
              <mxPoint x="140" y="229.5" />
            </Array>
          </mxGeometry>
        </mxCell>
        <mxCell id="yP_wTFienZzigo8ZD11Q-13" value="Kanopy" style="text;strokeColor=none;fillColor=none;html=1;fontSize=24;fontStyle=1;verticalAlign=middle;align=center;" parent="WIyWlLk6GJQsqaUBKTNV-1" vertex="1">
          <mxGeometry x="110" y="150" width="100" height="40" as="geometry" />
        </mxCell>
        <mxCell id="f37Q-BBssw8EZ5fxQEzy-10" value="&lt;span style=&quot;font-size: 12px&quot;&gt;Query&lt;/span&gt;" style="text;strokeColor=none;fillColor=none;html=1;fontSize=24;fontStyle=1;verticalAlign=middle;align=center;shadow=1;" vertex="1" parent="WIyWlLk6GJQsqaUBKTNV-1">
          <mxGeometry x="240" y="340" width="100" height="40" as="geometry" />
        </mxCell>
        <mxCell id="f37Q-BBssw8EZ5fxQEzy-12" value="Gemini" style="rounded=1;whiteSpace=wrap;html=1;fontSize=12;glass=0;strokeWidth=1;shadow=0;fillColor=#fff2cc;strokeColor=#d6b656;" vertex="1" parent="WIyWlLk6GJQsqaUBKTNV-1">
          <mxGeometry x="372" y="260" width="120" height="40" as="geometry" />
        </mxCell>
        <mxCell id="f37Q-BBssw8EZ5fxQEzy-23" value="" style="group" vertex="1" connectable="0" parent="WIyWlLk6GJQsqaUBKTNV-1">
          <mxGeometry x="290" y="200" width="80" height="80" as="geometry" />
        </mxCell>
        <mxCell id="f37Q-BBssw8EZ5fxQEzy-21" value="" style="group" vertex="1" connectable="0" parent="f37Q-BBssw8EZ5fxQEzy-23">
          <mxGeometry width="80" height="30" as="geometry" />
        </mxCell>
        <mxCell id="f37Q-BBssw8EZ5fxQEzy-19" value="" style="edgeStyle=elbowEdgeStyle;elbow=horizontal;endArrow=classic;html=1;rounded=0;fontSize=12;entryX=0;entryY=0.5;entryDx=0;entryDy=0;" edge="1" parent="f37Q-BBssw8EZ5fxQEzy-21" target="WIyWlLk6GJQsqaUBKTNV-7">
          <mxGeometry width="50" height="50" relative="1" as="geometry">
            <mxPoint x="-21.818181818181817" y="29.999999999999996" as="sourcePoint" />
            <mxPoint x="80" y="-59.99999999999999" as="targetPoint" />
            <Array as="points">
              <mxPoint x="44.44444444444444" y="10" />
            </Array>
          </mxGeometry>
        </mxCell>
        <mxCell id="f37Q-BBssw8EZ5fxQEzy-20" value="" style="endArrow=classic;html=1;rounded=0;fontSize=12;" edge="1" parent="f37Q-BBssw8EZ5fxQEzy-21">
          <mxGeometry width="50" height="50" relative="1" as="geometry">
            <mxPoint y="29.999999999999996" as="sourcePoint" />
            <mxPoint x="80" y="29.999999999999996" as="targetPoint" />
            <Array as="points">
              <mxPoint x="26.666666666666657" y="29.999999999999996" />
              <mxPoint x="53.333333333333314" y="29.999999999999996" />
            </Array>
          </mxGeometry>
        </mxCell>
        <mxCell id="f37Q-BBssw8EZ5fxQEzy-27" value="LLM" style="edgeLabel;html=1;align=center;verticalAlign=middle;resizable=0;points=[];fontSize=12;" vertex="1" connectable="0" parent="f37Q-BBssw8EZ5fxQEzy-20">
          <mxGeometry x="-0.64" y="2" relative="1" as="geometry">
            <mxPoint x="29" y="2" as="offset" />
          </mxGeometry>
        </mxCell>
        <mxCell id="f37Q-BBssw8EZ5fxQEzy-31" value="&lt;font style=&quot;font-size: 12px&quot;&gt;Query&lt;/font&gt;" style="text;strokeColor=none;fillColor=none;html=1;fontSize=24;fontStyle=1;verticalAlign=middle;align=center;shadow=1;" vertex="1" parent="WIyWlLk6GJQsqaUBKTNV-1">
          <mxGeometry x="240" y="420" width="100" height="40" as="geometry" />
        </mxCell>
      </root>
    </mxGraphModel>
  </diagram>
</mxfile>
